<?xml version="1.0" encoding="utf-8"?>
<!-- Generator: Adobe Illustrator 21.1.0, SVG Export Plug-In . SVG Version: 6.00 Build 0)  -->
<svg version="1.1" id="Capa_1" xmlns="http://www.w3.org/2000/svg" xmlns:xlink="http://www.w3.org/1999/xlink" x="0px" y="0px"
	 viewBox="0 0 33 33" style="enable-background:new 0 0 33 33;" xml:space="preserve">
<style type="text/css">
	.st0{fill:#04A4CD;}
</style>
<g>
	<g>
		<path class="st0" d="M20.1,33h-9.2c-2.4,0-4.3-2-4.3-4.3V11.3c0-0.3,0.2-0.5,0.5-0.5h16.8c0.3,0,0.6,0.2,0.6,0.5v17.4
			C24.5,31,22.5,33,20.1,33z M7.6,11.8v16.9c0,1.8,1.5,3.3,3.3,3.3h9.2c1.8,0,3.3-1.5,3.3-3.3V11.8H7.6z"/>
		<path class="st0" d="M26.1,25.6H24c-0.3,0-0.5-0.2-0.5-0.5s0.2-0.5,0.5-0.5h2.1c1,0,1.8-0.8,1.8-1.8v-4.7c0-1-0.8-1.8-1.8-1.8H24
			c-0.3,0-0.5-0.2-0.5-0.5s0.2-0.5,0.5-0.5h2.1c1.6,0,2.8,1.3,2.8,2.8v4.7C28.9,24.3,27.7,25.6,26.1,25.6z"/>
		<g>
			<path class="st0" d="M11.4,28.4c-0.3,0-0.5-0.2-0.5-0.5V15.7c0-0.3,0.2-0.5,0.5-0.5s0.5,0.2,0.5,0.5v12.2
				C11.9,28.1,11.7,28.4,11.4,28.4z"/>
			<path class="st0" d="M19.7,28.4c-0.3,0-0.5-0.2-0.5-0.5V15.7c0-0.3,0.2-0.5,0.5-0.5s0.5,0.2,0.5,0.5v12.2
				C20.2,28.1,20,28.4,19.7,28.4z"/>
			<path class="st0" d="M15.5,28.4c-0.3,0-0.5-0.2-0.5-0.5V15.7c0-0.3,0.2-0.5,0.5-0.5s0.5,0.2,0.5,0.5v12.2
				C16,28.1,15.8,28.4,15.5,28.4z"/>
		</g>
	</g>
	<path class="st0" d="M23.7,11.8H7.4c-1.8,0-3.3-1.5-3.3-3.3s1.5-3.3,3.3-3.3h0.2c0.3-3,2.8-5.2,5.8-5.2c1.8,0,3.5,0.8,4.6,2.2
		c0.5-0.2,1-0.3,1.5-0.3c2,0,3.6,1.4,3.9,3.3h0.2c1.8,0,3.3,1.5,3.3,3.3S25.5,11.8,23.7,11.8z M7.4,6.2c-1.3,0-2.3,1-2.3,2.3
		s1,2.3,2.3,2.3h16.3c1.3,0,2.3-1,2.3-2.3s-1-2.3-2.3-2.3H23c-0.3,0-0.5-0.2-0.5-0.5c-0.1-1.6-1.4-2.8-3-2.8c-0.5,0-1,0.1-1.4,0.4
		c-0.2,0.1-0.5,0.1-0.7-0.2C16.6,1.8,15,1,13.4,1c-2.6,0-4.8,2.1-4.9,4.7c0,0.3-0.2,0.5-0.5,0.5H7.4z"/>
</g>
</svg>
