<?xml version="1.0" encoding="utf-8"?>
<!-- Generator: Adobe Illustrator 21.1.0, SVG Export Plug-In . SVG Version: 6.00 Build 0)  -->
<svg version="1.1" id="Capa_1" xmlns="http://www.w3.org/2000/svg" xmlns:xlink="http://www.w3.org/1999/xlink" x="0px" y="0px"
	 viewBox="0 0 512 512" style="enable-background:new 0 0 512 512;" xml:space="preserve">
<style type="text/css">
	.st0{fill:#04A4CD;}
</style>
<g>
	<g>
		<path class="st0" d="M412.8,152.5c-4.2-4.2-10.9-4.2-15.1,0L234.6,315.6L71.5,152.5c-4.2-4.2-10.9-4.2-15.1,0s-4.2,10.9,0,15.1
			l170.7,170.7c2.1,2.1,4.8,3.1,7.6,3.1s5.5-1,7.5-3.1l170.7-170.7C417,163.4,417,156.6,412.8,152.5z"/>
	</g>
</g>
<g>
	<g>
		<path class="st0" d="M405.3,149.3c-4.4,0-8.1,2.6-9.7,6.3c-11.5,6.5-71.3,15-160.9,15c-70.5,0-122.6-5.3-147.2-10.7
			c24.6-5.4,76.7-10.7,147.2-10.7c30.6,0,60.5,1,86.5,3c5.7,0.5,11-4,11.4-9.8c0.4-5.9-4-11-9.9-11.4c-26.6-2-57-3-88.1-3
			c-82.7,0-181.3,5.5-181.3,32s98.6,32,181.3,32S416,186.5,416,160C416,154.1,411.2,149.3,405.3,149.3z"/>
	</g>
</g>
<g>
	<g>
		<path class="st0" d="M235.8,448.1c-0.8-0.1-1.6-0.1-2.4,0c-94.8,10.6-94.8,24-94.8,31.9c0,30.5,80,32,96,32s96-1.5,96-32
			C330.7,472,330.7,458.7,235.8,448.1z M234.7,490.7c-33.6,0-56.9-4.8-68.1-9.1c14.4-4.4,43-9.3,68.1-12.2
			c25.1,2.8,53.7,7.8,68.1,12.2C291.6,485.9,268.2,490.7,234.7,490.7z"/>
	</g>
</g>
<g>
	<g>
		<path class="st0" d="M234.7,320c-5.9,0-10.7,4.8-10.7,10.7v128c0,5.9,4.8,10.7,10.7,10.7s10.7-4.8,10.7-10.7v-128
			C245.3,324.8,240.6,320,234.7,320z"/>
	</g>
</g>
<g>
	<g>
		<path class="st0" d="M405.3,64c-52.9,0-96,43.1-96,96c0,6.9,0.7,13.9,2.2,20.6c1.3,5.7,7,9.4,12.7,8.1c5.8-1.2,9.4-6.9,8.1-12.7
			c-1.2-5.2-1.7-10.6-1.7-16c0-41.2,33.5-74.7,74.7-74.7S480,118.8,480,160s-33.5,74.7-74.7,74.7c-1.6,0-3.2,0-4.7-0.1l15.2-72.3
			c1.2-5.8-2.5-11.4-8.3-12.6c-5.7-1.2-11.4,2.5-12.6,8.3l-17.5,83.5c-0.6,2.8,0,5.7,1.5,8c1.5,2.4,3.9,4,6.7,4.6
			c6.5,1.3,13.1,2,19.7,2c52.9,0,96-43.1,96-96S458.3,64,405.3,64z"/>
	</g>
</g>
<g>
	<g>
		<path class="st0" d="M223.6,7.6c-1.4-4.5-5.5-7.6-10.2-7.6H64c-4.6,0-8.7,2.9-10.1,7.3l-42.7,128c-1.4,4.3,0,9.1,3.6,11.9
			c1.9,1.5,4.2,2.2,6.5,2.2c2.1,0,4.1-0.6,5.9-1.8l192-128C223.2,16.9,224.9,12.1,223.6,7.6z M41.3,112.5l30.4-91.2h106.4
			L41.3,112.5z"/>
	</g>
</g>
<g>
	<g>
		<path class="st0" d="M193,173.2l-67-94c-3.4-4.8-10.1-5.9-14.9-2.5c-4.8,3.4-5.9,10.1-2.5,14.9l67,94c2.1,2.9,5.4,4.5,8.7,4.5
			c2.1,0,4.3-0.7,6.2-2C195.3,184.6,196.4,178,193,173.2z"/>
	</g>
</g>
</svg>
