<?xml version="1.0" encoding="utf-8"?>
<!-- Generator: Adobe Illustrator 21.1.0, SVG Export Plug-In . SVG Version: 6.00 Build 0)  -->
<svg version="1.1" id="Layer_1" xmlns="http://www.w3.org/2000/svg" xmlns:xlink="http://www.w3.org/1999/xlink" x="0px" y="0px"
	 viewBox="0 0 463 463" style="enable-background:new 0 0 463 463;" xml:space="preserve">
<style type="text/css">
	.st0{fill:#04A4CD;}
</style>
<g>
	<g>
		<g>
			<path class="st0" d="M382.4,0L382.4,0c-12.2,0-22.7,9.1-24.4,21.1l-35.9,251c-1.7,12,5.8,23.2,17.6,26.1l12,3l-6.5,129.3
				c-0.4,8.5,2.6,16.6,8.5,22.8s13.8,9.6,22.4,9.6c17,0,30.9-13.9,30.9-30.9V24.6C407,11,396,0,382.4,0z M392,432.1L392,432.1
				c0,8.8-7.1,15.9-15.9,15.9c-4.4,0-8.5-1.8-11.5-4.9c-3-3.2-4.6-7.4-4.4-11.8l6.8-135.4c0.2-3.6-2.2-6.8-5.7-7.6l-18-4.5
				c-4.2-1.1-7-5.1-6.4-9.4l35.9-251c0.7-4.7,4.8-8.3,9.5-8.3h0c5.3,0,9.6,4.3,9.6,9.6L392,432.1L392,432.1z"/>
			<path class="st0" d="M287,7.1c-0.2-4.1-3.7-7.3-7.9-7.1c-4.1,0.2-7.3,3.7-7.1,7.9l6.4,128.1H255V7.5c0-4.1-3.4-7.5-7.5-7.5
				S240,3.4,240,7.5V136h-23.4L223,7.9c0.2-4.1-3-7.7-7.1-7.9c-4.1-0.2-7.7,3-7.9,7.1l-7.5,150.9c-0.4,8.2,3.6,16.2,10.4,20.7l9.1,6
				c2.5,1.6,3.9,4.4,3.8,7.3l-7.1,239.2c-0.2,8.4,2.9,16.3,8.7,22.4c5.9,6,13.7,9.3,22.1,9.3s16.3-3.3,22.1-9.3c5.9-6,9-14,8.7-22.4
				l-7.1-239.1c-0.1-2.9,1.3-5.7,3.8-7.3l9.1-6c6.8-4.6,10.8-12.5,10.4-20.7L287,7.1z M275.8,166.3l-9.1,6
				c-6.8,4.5-10.7,12.1-10.5,20.2l7.1,239.1c0.1,4.3-1.5,8.4-4.5,11.5c-3,3.1-7,4.8-11.4,4.8s-8.3-1.7-11.4-4.8s-4.6-7.2-4.5-11.5
				l7.1-239.1c0.2-8.2-3.7-15.7-10.5-20.2l-9.1-6c-2.5-1.7-3.9-4.5-3.8-7.5l0.4-7.8h63.3l0.4,7.8
				C279.7,161.8,278.3,164.6,275.8,166.3z"/>
			<path class="st0" d="M119.5,0c-15.6,0-37.3,7.8-51.6,45.2C59.1,68.2,56,95.3,56,111.5c0,22.3,11.4,42.6,30.5,54.2
				c5.3,3.2,8.4,8.7,8.2,14.6l-6.1,251c-0.2,8.4,2.9,16.3,8.8,22.4c5.9,6,13.7,9.3,22.1,9.3s16.3-3.3,22.1-9.3c5.9-6,9-14,8.8-22.4
				l-6.1-251c-0.1-5.9,2.9-11.4,8.2-14.6c19.1-11.6,30.5-31.9,30.5-54.2c0-16.2-3.1-43.3-11.9-66.3C156.8,7.8,135.1,0,119.5,0z
				 M144.7,152.9c-9.8,6-15.7,16.6-15.4,27.8l6.1,251c0.1,4.3-1.5,8.4-4.5,11.5c-3,3.1-7.1,4.8-11.4,4.8s-8.4-1.7-11.4-4.8
				s-4.6-7.2-4.5-11.5l6.1-251c0.3-11.2-5.6-21.8-15.4-27.8C79.7,144,71,128.5,71,111.5C71,80,82.9,15,119.5,15S168,80,168,111.5
				C168,128.5,159.3,144,144.7,152.9z"/>
		</g>
	</g>
</g>
</svg>
