<?xml version="1.0" encoding="utf-8"?>
<!-- Generator: Adobe Illustrator 21.1.0, SVG Export Plug-In . SVG Version: 6.00 Build 0)  -->
<svg version="1.1" id="Capa_1" xmlns="http://www.w3.org/2000/svg" xmlns:xlink="http://www.w3.org/1999/xlink" x="0px" y="0px"
	 viewBox="0 0 600.8 600.8" style="enable-background:new 0 0 600.8 600.8;" xml:space="preserve">
<style type="text/css">
	.st0{fill:#04A4CD;}
</style>
<g>
	<g>
		<path class="st0" d="M204,295.3c21,0,38,17,38,38s-17,38-38,38c-21,0-38-17-38-38S183,295.3,204,295.3z"/>
		<path class="st0" d="M574.3,325.8L600,122.6L415.1,52.4l-221.8,106L0,76.7l26.1,216.8l-25,213.5l205.4,38.5l209.5-39.9l184.9,42.7
			L574.3,325.8z M414.4,73.9l163.8,61.7L567,224.5l-163.3-41.3L414.4,73.9z M392.8,85.2l-8.6,93.1l-0.1,0l-113,14.6l-0.7,2.5
			c-0.1,0.5-13.3,49-27.1,71c-8.9-5.3-19-8.8-29.8-10.1l-9.2-81L392.8,85.2z M375.5,292.8l-98.3,14.8c-5.3-15-15-27.8-27.6-37
			c12.9-20.5,24.5-60.3,27.4-70.8l106.4-13.7L375.5,292.8z M184.3,176.2l9.1,80.2c-29.9,4.1-54.4,25.2-63.3,53.2l-83.8-13l-8-77.7
			c27.8-1.8,48.6-10.9,61.9-27c12-14.5,15.5-31.7,16.2-44.5L184.3,176.2z M24.2,108.6l84.5,35.7c-0.2,11.8-2.9,28.9-14.4,42.8
			c-12,14.5-31.2,22.6-57,24.3L24.2,108.6z M23.1,490.9l20.8-174.4l82.6,12.8c-0.1,1.3-0.2,2.6-0.2,4c0,18.2,6.3,34.9,16.8,48.1
			l-42.9,34.5l-13.5,87L23.1,490.9z M185,521.3l-90.7-17l13.1-84.3l40.8-32.8c12.5,13,29.5,21.6,48.4,23.4L185,521.3z M141.7,333.3
			c0-34.3,27.9-62.3,62.3-62.3c34.3,0,62.3,27.9,62.3,62.3c0,34.3-27.9,62.3-62.3,62.3C169.7,395.6,141.7,367.6,141.7,333.3z
			 M206.4,525.3l-1.8-0.3l12.1-115.1c36.8-6.1,64.9-38.1,64.9-76.6c0-2.1-0.1-4.1-0.3-6.2l96-14.5l8,81.9
			c-42.1,2-73.6,14.9-93.4,38.9c-23.1,27.9-24.2,62.7-23,79.9L206.4,525.3z M276.7,511.9c-0.9-16.3,0.4-48.4,21.3-73.6
			c18.4-22.3,48.2-34.3,88.2-36.1l8.5,87.2L276.7,511.9z M403,191l163,41.2l-9.8,77l-161-19.4L403,191z M534.1,375.7l-74.2-8.8
			l13.6,131.6L414,485.7l-16.9-176l1.7-0.3l155.6,19.8l23,193.4l-96.3-22.2l-12.7-124.6l66.1,7.7L534.1,375.7z"/>
	</g>
</g>
</svg>
