<?xml version="1.0" encoding="utf-8"?>
<!-- Generator: Adobe Illustrator 21.1.0, SVG Export Plug-In . SVG Version: 6.00 Build 0)  -->
<svg version="1.1" id="Layer_1" xmlns="http://www.w3.org/2000/svg" xmlns:xlink="http://www.w3.org/1999/xlink" x="0px" y="0px"
	 viewBox="0 0 410.6 326.8" style="enable-background:new 0 0 410.6 326.8;" xml:space="preserve">
<style type="text/css">
	.st0{fill:url(#SVGID_1_);}
	.st1{fill:#28292A;}
	.st2{fill:#23201E;}
	.st3{opacity:0.2;fill:#FFFFFF;}
	.st4{fill:url(#SVGID_2_);}
	.st5{fill:url(#SVGID_3_);}
	.st6{fill-rule:evenodd;clip-rule:evenodd;}
</style>
<g>
	<linearGradient id="SVGID_1_" gradientUnits="userSpaceOnUse" x1="5.000000e-04" y1="141.4561" x2="410.1245" y2="141.4561">
		<stop  offset="0" style="stop-color:#969696"/>
		<stop  offset="0.6018" style="stop-color:#FFFFFF"/>
		<stop  offset="1" style="stop-color:#DDDEDF"/>
	</linearGradient>
	<path class="st0" d="M410.1,273.5c0,5.2-4.2,9.5-9.4,9.5H9.4c-5.2,0-9.4-4.2-9.4-9.5V9.5C0,4.2,4.2,0,9.4,0h391.3
		c5.2,0,9.4,4.2,9.4,9.5V273.5z"/>
	<path class="st1" d="M410.1,245.6V9.5c0-5.2-4.2-9.5-9.4-9.5H9.4C4.2,0,0,4.2,0,9.5v236.2H410.1z"/>
	<rect x="15.1" y="13.3" class="st2" width="380" height="217.9"/>
	<path class="st3" d="M401.2,0H297.7l-92.7,245.6h205.5V9.5C410.6,4.2,406.4,0,401.2,0z"/>
</g>
<g>
	<linearGradient id="SVGID_2_" gradientUnits="userSpaceOnUse" x1="205.2926" y1="325.0918" x2="205.2926" y2="282.9121">
		<stop  offset="0" style="stop-color:#A4A4A4"/>
		<stop  offset="0.1133" style="stop-color:#8E8F92"/>
		<stop  offset="0.2042" style="stop-color:#BDBEC0"/>
		<stop  offset="0.4537" style="stop-color:#FFFFFF"/>
		<stop  offset="1" style="stop-color:#969696"/>
	</linearGradient>
	<path class="st4" d="M274.3,324.5c-0.7-0.2-14-2.7-14.8-3.1c-0.9-0.4-2-0.6-2.4-1.4c-3.4-8.3-5.9-37.2-5.9-37.2h-46.9h-45
		c0,0-2.5,28.8-5.9,37.2c-0.3,0.8-1.5,1.1-2.4,1.4c-0.8,0.4-14.1,2.9-14.8,3.1c-0.7,0.4-0.6,0.6-0.6,0.6h68.6h70.5
		C274.8,325.1,274.9,324.8,274.3,324.5z"/>
	<linearGradient id="SVGID_3_" gradientUnits="userSpaceOnUse" x1="135.7466" y1="325.5767" x2="274.8511" y2="325.5767">
		<stop  offset="1.108100e-02" style="stop-color:#1F1F1F"/>
		<stop  offset="5.066170e-02" style="stop-color:#848484"/>
		<stop  offset="0.5463" style="stop-color:#FFFFFF"/>
		<stop  offset="0.7958" style="stop-color:#BDBEC0"/>
		<stop  offset="0.8867" style="stop-color:#8E8F92"/>
		<stop  offset="0.9477" style="stop-color:#A0A2A4"/>
		<stop  offset="1" style="stop-color:#393939"/>
	</linearGradient>
	<rect x="135.7" y="325.1" class="st5" width="139.1" height="1"/>
	<rect x="136.4" y="326.1" class="st1" width="137.9" height="0.7"/>
</g>
<g id="Apple_2_">
	<path class="st6" d="M207.9,256.3c0.6-0.8,1.1-1.9,0.9-3c-1,0.1-2.2,0.7-2.8,1.5c-0.6,0.8-1.1,1.9-0.9,3
		C206.1,257.7,207.2,257.1,207.9,256.3z"/>
	<path class="st6" d="M211,264.7c-0.3-0.7-0.4-1.6-0.3-2.4c0.1-0.9,0.6-1.7,1.3-2.4c0.2-0.2,0.5-0.3,0.7-0.5c-1-1.2-2.3-1.9-3.6-1.9
		c-1.7,0-2.4,0.8-3.6,0.8c-1.2,0-2.1-0.8-3.6-0.8c-1.4,0-2.9,0.9-3.9,2.4c0,0,0,0,0,0c-0.4,0.6-0.7,1.5-0.8,2.4
		c-0.1,0.7-0.1,1.5,0.1,2.4c0.1,0.8,0.3,1.6,0.7,2.4c0.3,0.7,0.7,1.5,1.1,2.2c0,0.1,0.1,0.1,0.1,0.2c0.8,1.1,1.8,2.4,3.1,2.4
		c1.2,0,1.6-0.8,3.2-0.8c1.7,0,2,0.8,3.2,0.8c1.2,0,2.3-1.2,3-2.4c0.1-0.1,0.1-0.2,0.2-0.3c0.5-0.8,0.7-1.2,1.1-2.1
		c0-0.1,0.1-0.1,0.1-0.2C212.2,266.5,211.4,265.7,211,264.7z"/>
</g>
</svg>
