<?xml version="1.0" encoding="utf-8"?>
<!-- Generator: Adobe Illustrator 16.0.0, SVG Export Plug-In . SVG Version: 6.00 Build 0)  -->
<!DOCTYPE svg PUBLIC "-//W3C//DTD SVG 1.1//EN" "http://www.w3.org/Graphics/SVG/1.1/DTD/svg11.dtd">
<svg version="1.1" id="Calque_1" xmlns="http://www.w3.org/2000/svg" xmlns:xlink="http://www.w3.org/1999/xlink" x="0px" y="0px"
	 width="471.75px" height="155.833px" viewBox="0 0 471.75 155.833" enable-background="new 0 0 471.75 155.833"
	 xml:space="preserve">
<g>
	
		<polygon fill="none" stroke="#FFFFFF" stroke-width="2" stroke-linecap="square" stroke-miterlimit="10" stroke-dasharray="5,14" points="
		50.944,154.772 1.145,87.715 33.855,10.858 116.363,1.062 166.163,68.12 133.452,144.973 	"/>
	<path fill="#FFFFFF" stroke="#FFFFFF" stroke-miterlimit="10" d="M344.344,74.258v46.607h-1.303l-34.743-44.392v44.392h-1.239
		V74.258h1.239l34.743,44.456V74.258H344.344z"/>
	<path fill="#FFFFFF" stroke="#FFFFFF" stroke-miterlimit="10" d="M435.402,97.594c0,12.84-10.432,23.271-23.271,23.271h-14.08
		h-0.066V74.258h0.066h14.08C424.971,74.258,435.402,84.688,435.402,97.594z M434.229,97.594c0-12.189-9.909-22.098-22.098-22.098
		h-12.906v44.13h12.906C424.319,119.626,434.229,109.719,434.229,97.594z"/>
	<path fill="#FFFFFF" stroke="#FFFFFF" stroke-miterlimit="10" d="M443.155,75.496v21.446h20.532v1.239h-20.532v21.445h28.095v1.239
		h-29.334V74.258h29.334v1.238H443.155z"/>
	<path fill="#FFFFFF" d="M370.623,72.144c-10.407,0-18.844,8.436-18.844,18.847c0,15.091,17.037,29.068,17.037,29.068
		c0.992,0.814,2.623,0.814,3.619,0c0,0,17.035-13.978,17.035-29.068C389.471,80.58,381.037,72.144,370.623,72.144z M370.623,100.474
		c-5.229,0-9.481-4.254-9.481-9.483c0-5.228,4.257-9.482,9.481-9.482c5.229,0,9.483,4.255,9.483,9.482
		C380.106,96.22,375.852,100.474,370.623,100.474z"/>
	<g>
		<path fill="#FFFFFF" d="M55.472,74.257h34.809v4.889H75.289v41.719h-4.824V79.146H55.472V74.257z"/>
		<path fill="#FFFFFF" d="M108.856,100.005l23.532,20.859h-7.235l-22.163-19.751v19.751h-4.889V74.257h18.448
			c7.04,0,12.776,5.801,12.776,12.842c0,7.104-5.736,12.906-12.776,12.906H108.856z M102.99,95.117h13.559
			c4.367,0,7.952-3.586,7.952-8.018c0-4.368-3.585-7.953-7.952-7.953H102.99V95.117z"/>
		<path fill="#FFFFFF" d="M164.392,74.257l20.468,46.607h-5.28l-6.323-14.406h-21.446l-6.323,14.406h-5.28l20.468-46.607H164.392z
			 M171.105,101.635l-8.539-19.491l-8.604,19.491H171.105z"/>
		<path fill="#FFFFFF" d="M216.017,74.257h5.149l-18.773,46.607h-3.65l-19.034-46.607h5.149l15.71,38.329L216.017,74.257z"/>
		<path fill="#FFFFFF" d="M228.984,74.257h30.702v4.889h-25.813v15.971h18.839v4.889h-18.839v15.971h25.813v4.889h-30.702V74.257z"
			/>
		<path fill="#FFFFFF" d="M298.34,116.041v4.824h-30.833V74.257h4.889v41.783H298.34z"/>
	</g>
</g>
<g>
</g>
<g>
</g>
<g>
</g>
<g>
</g>
<g>
</g>
<g>
</g>
<g>
</g>
<g>
</g>
<g>
</g>
<g>
</g>
<g>
</g>
<g>
</g>
<g>
</g>
<g>
</g>
<g>
</g>
</svg>
